<svg xmlns="http://www.w3.org/2000/svg" xmlns:xlink="http://www.w3.org/1999/xlink" width="267" height="203" viewBox="0 0 267 203">
    <defs>
        <path id="a" d="M0 10.21V.84h9.613v9.368H0z"/>
        <path id="c" d="M0 84h267V0H0z"/>
    </defs>
    <g fill="none" fill-rule="evenodd">
        <g>
            <g transform="translate(0 15)">
                <mask id="b" fill="#fff">
                    <use xlink:href="#a"/>
                </mask>
                <path fill="#FEFEFE" d="M9.356.841c-.24 0-.563.017-.756.028a3.96 3.96 0 0 1-.174.008c-.051 0-.151-.005-.281-.01C7.901.857 7.567.84 7.257.84c-.127 0-.317 0-.317.151 0 .086.062.129.185.129.128 0 .302 0 .43.043.112.056.125.177.125.225 0 .11-.057.294-.106.441-.245.81-1.765 4.816-2.495 6.541L2.837 2.343l-.007-.02c-.168-.436-.311-.814-.311-.957 0-.067.014-.14.122-.19.091-.042.29-.055.431-.055.144 0 .174-.076.174-.14 0-.129-.195-.14-.376-.14-.301 0-.641.017-.867.026-.114.006-.203.01-.243.01-.047 0-.153-.004-.296-.01C1.18.858.748.842.365.842c-.163 0-.365 0-.365.14 0 .086.057.14.15.14.067 0 .268 0 .439.045.388.111.559.218.822.893L4.332 9.43l.028.07c.214.545.279.71.452.71.127 0 .175-.108.355-.511.052-.118.115-.26.196-.435.262-.563.757-1.758 1.441-3.407l.516-1.254c.439-1.065.818-1.985.919-2.244.315-.8.491-1.004.633-1.103.213-.135.462-.135.544-.135.164 0 .197-.076.197-.14 0-.14-.193-.14-.257-.14" mask="url(#b)"/>
            </g>
            <path fill="#FEFEFE" d="M15.852 24.715c-.092 0-.325-.022-.5-.049-.286-.043-.32-.202-.356-.502-.051-.426-.051-1.232-.051-2.252v-1.838c0-1.62 0-1.914.013-2.242.027-.375.09-.472.347-.524.12-.024.193-.024.267-.024.07 0 .148-.074.148-.14 0-.144-.171-.144-.236-.144-.249 0-.7.013-.943.02l-.175.004-.194-.004c-.252-.009-.674-.02-.936-.02-.065 0-.236 0-.236.143a.15.15 0 0 0 .147.141c.074 0 .21.012.331.037.207.04.285.17.31.512.024.328.024.621.024 2.24v1.84c0 .8-.007 1.778-.062 2.251-.038.311-.076.464-.249.503a1.57 1.57 0 0 1-.328.048.142.142 0 0 0-.148.142c0 .094.08.143.236.143.241 0 .657-.019.906-.03l.199-.006c.012 0 .055 0 .123.003.236.01.789.033 1.274.033.214 0 .237-.1.237-.143a.142.142 0 0 0-.148-.142M24.365 22.212h-2.258l1.056-3.135a.318.318 0 0 1 .041-.085c.008.013.023.035.04.085l1.12 3.132v.003zm3.434 3.476c-.087 0-.259-.008-.433-.066-.256-.083-.54-.246-.93-1.216-.362-.905-1.027-2.613-1.612-4.119-.542-1.394-1.01-2.599-1.109-2.834l-.063-.143c-.074-.18-.13-.31-.261-.31-.125 0-.188.114-.326.484l-2.669 7.165c-.23.61-.443.952-.907 1.011a3.168 3.168 0 0 1-.326.028.161.161 0 0 0-.163.156c0 .156.21.156.28.156.31 0 .666-.017.903-.03.117-.006.205-.01.243-.01.051 0 .187.006.343.015.229.012.513.025.675.025.198 0 .227-.098.227-.156 0-.047-.017-.156-.175-.156h-.103c-.1 0-.327-.025-.327-.248 0-.19.06-.46.164-.747l.644-1.83c.018-.05.04-.055.06-.055h2.617c.026 0 .032.002.032.002.003.002.007.01.016.026l1.019 2.628c.023.058.026.107.01.147a.163.163 0 0 1-.086.084l-.023.01c-.037.018-.087.04-.087.125 0 .118.148.126.375.138l.082.005a54.68 54.68 0 0 0 1.794.027c.204 0 .317-.055.317-.156 0-.093-.083-.156-.201-.156zM44.86 23.103c-.135 0-.161.141-.18.243-.09.513-.242.752-.561.882-.334.138-.907.138-1.25.138-1.309 0-1.441-.177-1.477-1a61.554 61.554 0 0 1-.003-1.634l.003-.566v-1.134c0-.026.006-.031.031-.031.223 0 1.535.026 1.892.064.468.049.585.234.637.411.05.156.05.278.05.407 0 .106.06.175.154.175.154 0 .154-.19.154-.305 0-.083.025-.555.053-.818.025-.263.06-.446.082-.567a.993.993 0 0 0 .025-.16c0-.147-.091-.163-.128-.163-.077 0-.132.062-.223.163l-.022.025c-.105.115-.292.137-.583.161-.223.018-1.233.025-2.105.025H41.4c-.004-.005-.008-.021-.008-.07v-3.554c0-.057.011-.07.017-.071.16 0 1.592.015 1.812.04.692.075.81.22.892.402.059.137.074.34.074.44 0 .186.09.226.168.226.076 0 .127-.063.153-.19.018-.104.035-.374.049-.592.007-.116.013-.216.018-.261.023-.212.055-.348.078-.447a.755.755 0 0 0 .028-.166c0-.152-.071-.176-.114-.176a.29.29 0 0 0-.131.04.283.283 0 0 1-.07.026c-.108.027-.327.052-.558.064-.3.012-2.924.012-3.032.012l-.545-.026c-.292-.013-.645-.013-.957-.013-.083 0-.274 0-.274.163 0 .08.07.137.168.137.12 0 .337.013.438.037.417.085.498.279.522.68.026.411.026.773.026 2.779v2.267c0 1.207 0 2.25-.066 2.787-.056.404-.124.616-.336.66-.146.03-.289.05-.386.05-.123 0-.167.073-.167.136 0 .163.191.163.274.163.093 0 .21-.006.334-.012.145-.008.294-.015.438-.015.257-.012.47-.012.528-.012.186 0 .475.01 1.033.039l.292.007c.477.012 1.13.031 1.952.031.515 0 .67 0 .776-.381.065-.267.174-1.145.174-1.262 0-.095 0-.254-.14-.254M58.87 25.685c-.097 0-.353 0-.626-.106-.342-.137-.43-.628-.471-1.139l-.675-7.073c-.033-.304-.125-.367-.198-.367-.103 0-.16.117-.206.226l-2.836 7.026-2.946-7.041c-.077-.183-.19-.211-.25-.211-.085 0-.15.102-.164.258l-.72 7.519-.011.112c-.043.435-.082.704-.328.756l-.027.005c-.125.023-.188.035-.258.035-.084 0-.154.065-.154.144 0 .077.039.171.221.171.172 0 .427-.018.612-.029.105-.007.188-.011.221-.011.025 0 .088.003.173.008.198.013.494.032.75.032.058 0 .232 0 .232-.171 0-.08-.072-.144-.13-.144-.076 0-.219-.018-.372-.066-.13-.036-.195-.127-.195-.265 0-.189 0-.403.01-.577l.373-5.062c.157.413.526 1.322.83 2.068.156.383.296.728.387.956a90.36 90.36 0 0 0 1.161 2.672c.2.435.262.561.384.561s.184-.122.395-.645l2.326-5.727.459 5.654c.023.22.002.325-.006.337a.16.16 0 0 0-.107.157c0 .123.115.159.328.183.37.041 1.476.069 1.694.069.154 0 .254-.068.254-.171 0-.085-.054-.144-.13-.144M65.853 24.715c-.092 0-.326-.022-.499-.049-.287-.043-.32-.202-.357-.502-.052-.426-.052-1.232-.052-2.252v-1.838c0-1.62 0-1.914.014-2.242.026-.375.09-.472.347-.524.12-.024.192-.024.267-.024.072 0 .148-.074.148-.14 0-.144-.171-.144-.236-.144-.249 0-.701.013-.944.02l-.175.004-.193-.004c-.253-.009-.675-.02-.937-.02-.065 0-.236 0-.236.143a.15.15 0 0 0 .147.141c.073 0 .21.012.331.037.208.04.285.17.31.512.025.328.025.621.025 2.24v1.84c0 .8-.007 1.778-.063 2.251-.038.311-.076.464-.248.503a1.57 1.57 0 0 1-.33.048.141.141 0 0 0-.146.142c0 .094.079.143.235.143.242 0 .657-.019.905-.03l.2-.006c.012 0 .056 0 .123.003.236.01.79.033 1.275.033.213 0 .236-.1.236-.143a.141.141 0 0 0-.147-.142M77.856 23.408c-.093 0-.164.068-.184.18a1.17 1.17 0 0 1-.271.56c-.26.277-.743.298-1.395.298-.907 0-1.37-.067-1.548-.228-.203-.17-.225-.864-.225-2.295v-1.859c0-1.615 0-1.907.013-2.234.026-.354.088-.48.393-.534a5.69 5.69 0 0 1 .387-.024c.073 0 .158-.059.158-.13 0-.094-.084-.142-.252-.142-.266 0-.815.013-1.11.02-.114.001-.194.004-.21.004l-.174-.004c-.274-.007-.783-.02-1.185-.02-.07 0-.253 0-.253.143 0 .067.083.14.158.14.104 0 .306.013.4.025.34.042.407.167.434.523.027.327.027.619.027 2.233v1.833c0 1.017 0 1.82-.066 2.242l-.006.03c-.053.302-.084.437-.26.475a1.798 1.798 0 0 1-.352.047c-.103 0-.159.073-.159.142 0 .094.085.143.253.143.191 0 .45-.012.698-.025.151-.009.315-.012.485-.012.273 0 .574.007.955.015l.349.01c.57.024 1.232.036 2.082.036.635 0 .727-.036.824-.323.095-.31.178-.94.178-1.055 0-.143-.049-.214-.144-.214M83.853 24.715c-.092 0-.326-.022-.499-.049-.288-.043-.32-.202-.356-.502-.052-.426-.052-1.232-.052-2.252v-1.838c0-1.62 0-1.914.013-2.242.026-.375.091-.472.347-.524.122-.024.192-.024.267-.024.07 0 .147-.074.147-.14 0-.144-.17-.144-.235-.144-.249 0-.701.013-.943.02l-.176.004-.192-.004c-.254-.009-.676-.02-.938-.02-.065 0-.236 0-.236.143a.15.15 0 0 0 .148.141c.073 0 .21.012.33.037.207.04.285.17.31.512.024.328.024.621.024 2.24v1.84c0 .8-.006 1.778-.062 2.251-.04.311-.076.464-.248.503a1.571 1.571 0 0 1-.329.048.142.142 0 0 0-.148.142c0 .094.08.143.236.143.242 0 .657-.019.906-.03l.2-.006c.011 0 .055 0 .122.003.236.01.79.033 1.275.033.214 0 .236-.1.236-.143a.141.141 0 0 0-.147-.142M92.365 22.212h-2.258l1.056-3.135a.297.297 0 0 1 .04-.085.353.353 0 0 1 .042.085l1.12 3.132v.003zm3.434 3.476a1.43 1.43 0 0 1-.434-.066c-.256-.083-.54-.246-.93-1.216-.361-.905-1.025-2.613-1.61-4.119-.542-1.394-1.01-2.599-1.11-2.834l-.062-.143c-.076-.18-.13-.31-.263-.31-.123 0-.187.114-.325.484l-2.669 7.165c-.229.61-.443.952-.907 1.011a3.167 3.167 0 0 1-.326.028c-.087 0-.163.07-.163.156 0 .156.21.156.28.156.31 0 .667-.017.903-.03a6.62 6.62 0 0 1 .243-.01c.052 0 .187.006.343.015.23.012.514.025.676.025.197 0 .227-.098.227-.156 0-.047-.018-.156-.176-.156h-.103c-.099 0-.327-.025-.327-.248 0-.19.06-.46.164-.747l.643-1.83c.02-.05.04-.055.061-.055h2.616a.15.15 0 0 1 .033.002s.007.01.015.026l1.02 2.628c.023.058.027.107.01.147a.167.167 0 0 1-.086.084l-.023.01c-.038.018-.088.04-.088.125 0 .118.15.126.375.138l.082.005a54.73 54.73 0 0 0 1.795.027c.204 0 .317-.055.317-.156 0-.093-.083-.156-.201-.156zM16.564 53.164c-1.41-5.026.175-10.85.94-15.268.486-2.823.325-7.128.39-7.493.065-.367.31-.642.781-.873 1.294-.635 3.877-.774 5.32-.002.964.514 1.557.337 1.566 1.364-.185 2.4.61 5.608.938 7.206.612 2.083 1.595 3.699 2.504 5.803.253.587.214.938.47 1.831.32 1.121 1.355 1.933 1.486 3.157.397 3.708-2.159 6.225-4.773 6.107-.566-.026-.94-.47-1.3-.544-2.834-.577-7.96-.119-8.322-1.288M67.977 33.48c.206.987-1.01 3.794-1.551 5.549-.76 2.47-1.833 6.077-2.66 6.659-1.72 1.138-5.262.288-7.981.667-2.422.337-6.665.993-7.2.416-1-1.113-.422-2.654-.39-4.163.022-1.024-.26-1.902-.08-2.832.082-.407.242-.817.27-1.236.06-.955-.46-1.939-.347-3.008.143-1.347 1.158-2.551 1.565-2.832.408-.281.976-.41 2.052-.527 2.198-.238 5.655-.232 8.043.027.495.054.969.36 1.487.417 2.44.273 6.524-.225 6.792.863M15.256 30.396c1.91.337-.423 8.4-.752 12.103-.136 1.53-.273 3.185-.616 4.357-.49 1.68-2.94 1.033-4.464.968-1.453-.061-3.868-.472-5.493-.484-1.327-.01-2.72.608-2.916-1.162-.114-1.03.44-3.7.746-5.325.254-1.359.564-2.98.814-4.938.123-.958.692-3.916 1.084-4.647.22-.41.542-.647 1.017-.872.62-.316 7.483-.706 10.58 0M76.422 56.176c-2.98.708-5.529 1.056-8.127 1.602-1.13.236-2.157.624-2.808-.943-.553-1.334-.646-5.093-.221-6.78.16-.636.593-1.112.812-1.791.305-.939.268-2.138.517-3.297.182-.838.619-1.606.813-2.448.5-2.159.52-3.98 1.109-5.933.38-1.264 1.449-3.584 1.994-4.05.868-.742 4.126-.745 5.025.188.645.669.689 1.949.886 3.484.475 3.704.99 8.881 1.33 13.281.211 2.734.837 6.078-1.33 6.687M94.941 32.616c.206.198.257.641.345 1.425.3 2.673.342 8.404.708 11.668.046.607-.18 1.135-.647 1.042-3.801-.44-10.319.412-13.027.22-.71-.05-1.013-.168-1.226-.41-.111-.127-.246-.532-.343-.808-.584-1.669-.56-3.614-.71-6.496-.104-2.03-.007-2.94.244-4.459.273-1.65-.117-3.702 1.296-3.794.618-.04 1.28.218 2.024.286 3.691.333 7.624-.33 10.432.853.316.133.699.277.904.473M45.894 31.434c.364 1.331-.317 5.288-.41 7.114-.155 3.036-.184 8.182-.95 8.471-1.62.754-6.932 1.375-9.226.677-.323-.098-.585-.416-.859-.484-.66-.166-1.411.16-1.86-.097-.636-.364-1.877-4.422-2.216-5.42-.64-1.886-1.592-4.056-1.86-5.808-.24-1.563-.939-4.346-.143-4.648 4.118-1.08 10.29-1.903 14.59-.483.412.136.9.05 1.573.218.409.104 1.15-.045 1.36.46M63.078 49.185c.394.183.457.625.599 1.491.528 3.233.337 10.72-.065 13.555-.092.646-.14.937-.446 1.121-.265.158-2.412.694-3.684.696-.502.001-1.057-.284-1.405-.273-.35.01-.867.387-1.4.491-1.603.313-3.696.197-5.297.383-.427.05-.69.393-1.195.347-.855-.078-1.622-.937-1.575-2.01.19-3.664-1.34-12.696-.156-14.005 2.421-2.282 7.366-1.536 11.393-1.926 1.117-.108 2.837-.052 3.231.13M96.836 50.564c.499.164.59.35.7 1.235.205 1.028.574 10.605.432 14.63-.032.925.016 1.555-.186 1.724-.424.353-.992.26-1.741.726-.809.505-2.335-.74-3.457-.726-1.724.02-3.048-.479-5.444.103-.458.11-.906.427-1.32.409-.98-.044-1.797-.62-2.145-1.84-.638-4.156-1.473-11.325-1.62-14.79-.04-.946-.122-1.34.052-1.873.173-.533 1.054-1.025 2.31-1.124 3.995-.313 12.031 1.398 12.419 1.526M46.424 50.89c.204.244.144.518.208 1.207.222 2.347.38 7.466.365 9.686-.004.578.044.952-.14 1.213-.182.262-.555.436-1.058.617-1.96.708-5.478.286-7.476-.02-1.638-.25-3.087-.032-4.188-.369-.473-.144-1.01-.388-1.212-.823-.144-.31-.333-1.01-.5-1.617-.275-1.002-.497-2.172-.4-3.413.164-2.11.194-5.699 1.124-6.48.978-.82 5.47-.794 7.351-.852 1.487-.047 3.415-.121 4.768.264.47.134.954.344 1.158.587M66.203 71.253c-.29-.558-.279-1.114-.336-1.616-.083-.73-.11-1.4-.358-2.081-.155-.425-.215-.806-.303-1.294-.324-1.8.069-1.914-.078-4.135-.068-1.036-.403-2.025.391-2.589.3-.213 1.604-.573 2.111-.74 2.662-.871 7.09-1.422 9.537-1.756 2.503-.342 2.732 1.42 2.735 4.529.005 3.18.218 4.804 0 7.649-.094 1.229-.629 2.694-1.71 2.735-.453.016-1.266-.03-1.728-.148-1.406-.356-2.918.096-4.066.186-.745.059-1.4-.252-2.11-.278-.84-.03-2.058.358-3.029.169-.412-.08-.765-.16-1.056-.631"/>
            <mask id="d" fill="#fff">
                <use xlink:href="#c"/>
            </mask>
            <path fill="#FEFEFE" d="M118 84h.534V1H118zM170.525 0s-1.587 4.972-1.523 7.813c.062 2.965 1.379 6.253 2.841 7.816 1.465 1.561 3.338 4.126 3.461 5.45.124 1.328-.16 5.921-.16 5.921s2.284-6.333 1.784-8.952c-.475-2.515-1.121-3.463-2.718-5.41-1.596-1.954-2.423-2.45-3.462-4.784-.787-1.777-.223-7.854-.223-7.854M159.025 3s-.204 5.26.555 8.006c.79 2.861 2.795 5.707 4.507 6.829 1.71 1.124 4.043 3.11 4.481 4.372.436 1.251 1.318 5.793 1.318 5.793s.5-6.768-.595-9.18c-1.055-2.313-1.878-3.064-3.802-4.53-1.928-1.466-2.8-1.726-4.319-3.719C160.018 9.056 159.025 3 159.025 3M150 9s1.107 5.364 2.545 7.912c1.498 2.655 4.198 4.924 6.17 5.55 1.98.63 4.787 1.945 5.534 3.082C164.996 26.677 167 31 167 31s-1.19-6.979-2.882-9.086c-1.621-2.026-2.624-2.533-4.897-3.442-2.274-.906-3.203-.913-5.209-2.473C152.491 14.815 150 9 150 9M143 16s2.234 4.697 4.16 6.69c2.012 2.073 5.074 3.477 7.088 3.544 2.016.069 4.973.557 5.935 1.417C161.145 28.511 164 32 164 32s-2.667-6.17-4.74-7.687c-1.986-1.456-3.05-1.667-5.408-1.919-2.364-.25-3.25-.011-5.498-.939C146.65 20.752 143 16 143 16M138 26s3.525 4.024 6.042 5.459c2.623 1.496 6.183 2.039 8.305 1.544 2.12-.49 5.337-.833 6.559-.246C160.126 33.343 164 36 164 36s-4.354-5.363-6.903-6.29c-2.444-.887-3.614-.803-6.143-.396-2.528.412-3.394.892-5.976.597C143.018 29.686 138 26 138 26" mask="url(#d)"/>
            <path fill="#FEFEFE" d="M135 35.645s4.488 3.173 7.32 3.948c2.955.802 6.57.351 8.517-.769 1.948-1.11 5-2.377 6.347-2.12 1.346.258 5.816 1.922 5.816 1.922s-5.641-4.328-8.371-4.566c-2.619-.23-3.74.192-6.106 1.336-2.368 1.141-3.085 1.89-5.687 2.316-1.974.33-7.836-2.067-7.836-2.067M135 47.387s4.994 1.711 7.84 1.609c2.971-.096 6.25-1.594 7.8-3.238 1.551-1.638 4.105-3.748 5.43-3.901 1.325-.147 5.93.117 5.93.117s-6.361-2.467-8.985-1.885c-2.512.552-3.458 1.282-5.393 3.079-1.94 1.786-2.43 2.712-4.764 3.892-1.77.893-7.858.327-7.858.327M138 56.949s5.224.278 7.96-.46c2.861-.775 5.712-2.788 6.856-4.523 1.143-1.731 3.154-4.093 4.405-4.528 1.256-.429 5.779-1.272 5.779-1.272s-6.716-.604-9.132.491c-2.313 1.046-3.068 1.876-4.556 3.828-1.485 1.956-1.756 2.839-3.757 4.37-1.521 1.16-7.555 2.094-7.555 2.094M144 67s4.811-1.026 7.112-2.45c2.404-1.48 4.492-4.203 5.093-6.222.602-2.012 1.837-4.87 2.87-5.614C160.102 51.968 164 50 164 50s-6.25 1.074-8.165 2.768c-1.84 1.621-2.321 2.643-3.182 4.958-.857 2.322-.882 3.273-2.32 5.3C149.244 64.558 144 67 144 67M151 75s4.43-2.469 6.298-4.582c1.95-2.201 3.264-5.553 3.311-7.75.05-2.197.492-5.426 1.3-6.477C162.719 55.139 166 52 166 52s-5.822 2.95-7.246 5.22c-1.363 2.172-1.558 3.337-1.776 5.912-.22 2.575.012 3.537-.852 5.992C155.472 70.989 151 75 151 75M161 79s4.016-3.524 5.451-6.04c1.491-2.623 2.035-6.185 1.546-8.307-.489-2.127-.818-5.345-.235-6.566C168.347 56.867 171 53 171 53s-5.35 4.344-6.274 6.898c-.891 2.443-.81 3.607-.406 6.14.406 2.536.884 3.4.583 5.983C164.683 73.979 161 79 161 79M171.569 82s3.213-4.474 4.005-7.309c.822-2.951.387-6.572-.726-8.523-1.113-1.952-2.374-5.013-2.107-6.361.269-1.343 1.954-5.807 1.954-5.807s-4.378 5.623-4.63 8.356c-.24 2.62.178 3.74 1.317 6.112 1.14 2.376 1.887 3.1 2.307 5.703.32 1.976-2.12 7.829-2.12 7.829" mask="url(#d)"/>
            <path fill="#FEFEFE" d="M181.52 81s1.55-4.984 1.478-7.828c-.079-2.966-1.405-6.255-2.863-7.808-1.458-1.558-3.335-4.111-3.461-5.444-.126-1.323.13-5.92.13-5.92s-2.236 6.345-1.73 8.965c.486 2.512 1.133 3.462 2.728 5.405 1.593 1.945 2.415 2.44 3.455 4.776.794 1.771.263 7.854.263 7.854M192.985 79s.175-5.283-.664-8.035c-.878-2.87-3.056-5.701-4.907-6.814-1.847-1.111-4.37-3.087-4.85-4.347-.485-1.255-1.469-5.804-1.469-5.804s-.481 6.8.722 9.213c1.153 2.315 2.042 3.057 4.124 4.51 2.086 1.456 3.02 1.708 4.673 3.695 1.252 1.51 2.37 7.582 2.37 7.582" mask="url(#d)"/>
            <path fill="#FEFEFE" d="M199 74s-1.025-5.349-2.373-7.89c-1.41-2.653-3.952-4.929-5.822-5.565-1.868-.635-4.522-1.96-5.227-3.1C184.878 56.313 183 52 183 52s1.091 6.951 2.687 9.062c1.524 2.022 2.469 2.536 4.621 3.452 2.153.918 3.032.926 4.922 2.493C196.664 68.196 199 74 199 74M176.45 37.774v1.618c-.352.2-.737.353-1.156.454a5.913 5.913 0 0 1-1.404.154c-1.238-.009-2.193-.355-2.867-1.04-.673-.686-1.014-1.66-1.023-2.922 0-.747.127-1.423.382-2.03a3.302 3.302 0 0 1 1.15-1.453c.511-.361 1.153-.546 1.925-.555.913.008 1.627.209 2.145.603.518.395.882.938 1.093 1.629.21.691.312 1.487.305 2.385h-5.15c.053.618.267 1.095.647 1.425.378.333.872.5 1.48.503.469-.006.909-.083 1.317-.229.41-.148.795-.327 1.156-.542m-4.6-2.523h3.298c-.024-.498-.158-.917-.403-1.26-.246-.342-.636-.522-1.173-.536-.541.01-.952.182-1.235.514-.282.331-.445.76-.486 1.282" mask="url(#d)"/>
            <path fill="#FEFEFE" d="M177 40v-7.818h1.653v1.093h.027c.286-.472.61-.804.972-.996.362-.194.712-.286 1.052-.279.476-.003.882.106 1.218.326.336.22.6.573.791 1.055.217-.47.519-.817.906-1.044a2.378 2.378 0 0 1 1.224-.337c.825.018 1.394.312 1.708.878.313.567.463 1.296.448 2.189V40h-1.772v-4.661a5.574 5.574 0 0 0-.039-.78 1.363 1.363 0 0 0-.264-.687c-.144-.187-.383-.285-.716-.293-.387.013-.676.165-.866.455-.19.289-.315.635-.375 1.038s-.087.78-.082 1.133V40h-1.772v-4.661a5.442 5.442 0 0 0-.037-.78 1.37 1.37 0 0 0-.265-.687c-.144-.187-.384-.285-.715-.293-.388.013-.677.165-.868.455-.189.289-.315.635-.374 1.038a6.82 6.82 0 0 0-.082 1.133V40H177zM190 31.736h2V30h-2v1.736zM190 40h2v-6.989h-2V40zM194 39h2V29h-2zM197 31.736h2V30h-2v1.736zM197 40h2v-6.989h-2V40zM203.927 37.611c.007.325.131.562.368.712.238.15.541.225.911.223.622-.02 1.094-.247 1.416-.682a1.89 1.89 0 0 0 .334-.726c.061-.267.09-.55.087-.848h-.872a5.203 5.203 0 0 0-.985.082 1.94 1.94 0 0 0-.879.375c-.242.19-.369.478-.38.864m-1.024-3.324l-.06-1.708c.401-.18.84-.32 1.318-.423.48-.101.938-.154 1.377-.156 1.173-.007 2.025.249 2.557.765.531.517.793 1.334.785 2.457v.98a71.742 71.742 0 0 0 .029 1.915c.016.56.046 1.13.091 1.706h-1.776a4.8 4.8 0 0 1-.067-.633l-.024-.51h-.03c-.246.425-.59.75-1.027.978a2.97 2.97 0 0 1-1.366.342 3.312 3.312 0 0 1-1.312-.265 2.452 2.452 0 0 1-1-.77c-.258-.338-.39-.75-.398-1.236.007-.567.133-1.027.375-1.38.242-.352.558-.62.95-.8a4.351 4.351 0 0 1 1.273-.363 9.35 9.35 0 0 1 1.33-.083h1.115c.002-.608-.14-1.037-.427-1.286-.286-.25-.726-.37-1.319-.362a3.75 3.75 0 0 0-1.266.227c-.41.147-.786.35-1.128.605M210 40v-7.816h1.964v1.775h.033c.036-.252.153-.53.354-.831.201-.3.469-.56.805-.78.336-.22.725-.335 1.168-.345.216-.011.443.009.676.06v2.049a1.37 1.37 0 0 0-.42-.123 3.43 3.43 0 0 0-.57-.044c-.588.018-1.01.21-1.266.576-.255.366-.411.795-.465 1.286-.057.49-.08.932-.067 1.325V40H210zM217.078 35.814c-.004.43.05.846.16 1.245.11.401.307.732.587.993.278.261.668.395 1.168.405.505-.01.899-.144 1.18-.402.281-.259.477-.588.588-.989.113-.4.166-.817.161-1.252a2.9 2.9 0 0 0-.21-1.11 1.928 1.928 0 0 0-.639-.832c-.285-.213-.645-.322-1.08-.329-.43.008-.787.12-1.07.336a1.96 1.96 0 0 0-.635.838c-.14.345-.21.71-.21 1.097m-2.078.238c.008-.844.186-1.569.534-2.171a3.576 3.576 0 0 1 1.42-1.392c.6-.322 1.28-.485 2.039-.489.764.004 1.447.167 2.048.49a3.567 3.567 0 0 1 1.425 1.39c.349.603.526 1.328.534 2.172-.003.74-.16 1.407-.475 2a3.521 3.521 0 0 1-1.365 1.413c-.597.349-1.318.526-2.167.535-.844-.009-1.563-.186-2.156-.535a3.533 3.533 0 0 1-1.362-1.413c-.314-.593-.472-1.26-.475-2M223 40v-7.818h1.653v1.093h.027c.286-.472.61-.804.972-.996.362-.194.712-.286 1.052-.279.476-.003.882.106 1.218.326.336.22.6.573.791 1.055.217-.47.519-.817.906-1.044a2.378 2.378 0 0 1 1.224-.337c.825.018 1.394.312 1.707.878.314.567.463 1.296.45 2.189V40h-1.773v-4.661a5.706 5.706 0 0 0-.038-.78 1.372 1.372 0 0 0-.265-.687c-.144-.187-.383-.285-.716-.293-.387.013-.675.165-.866.455-.19.289-.315.635-.375 1.038s-.087.78-.082 1.133V40h-1.772v-4.661a5.442 5.442 0 0 0-.037-.78 1.363 1.363 0 0 0-.265-.687c-.144-.187-.383-.285-.715-.293-.388.013-.677.165-.868.455-.189.289-.315.635-.374 1.038-.06.403-.088.78-.082 1.133V40H223zM237.926 37.611c.01.325.132.562.37.712.236.15.541.225.91.223.622-.02 1.093-.247 1.416-.682.162-.218.273-.46.333-.726.061-.267.09-.55.087-.848h-.872a5.202 5.202 0 0 0-.984.082c-.342.06-.636.185-.878.375-.243.19-.37.478-.382.864m-1.023-3.324l-.06-1.708c.401-.18.841-.32 1.319-.423a6.79 6.79 0 0 1 1.375-.156c1.173-.007 2.026.249 2.557.765.531.517.794 1.334.785 2.457v.98a71.744 71.744 0 0 0 .03 1.915c.015.56.046 1.13.091 1.706h-1.777a4.973 4.973 0 0 1-.067-.633l-.024-.51h-.03c-.246.425-.589.75-1.027.978-.438.226-.893.34-1.366.342a3.31 3.31 0 0 1-1.31-.265 2.451 2.451 0 0 1-1.001-.77c-.258-.338-.39-.75-.398-1.236.008-.567.133-1.027.375-1.38.242-.352.558-.62.95-.8.39-.182.816-.303 1.274-.363.458-.06.9-.088 1.329-.083h1.114c.002-.608-.14-1.037-.426-1.286-.287-.25-.727-.37-1.32-.362a3.753 3.753 0 0 0-1.265.227c-.41.147-.785.35-1.128.605M248.976 32.16H251v6.208a4.077 4.077 0 0 1-.355 1.772c-.247.549-.685.992-1.312 1.334-.627.34-1.503.515-2.631.526a8.78 8.78 0 0 1-1.342-.1 7.96 7.96 0 0 1-1.473-.367l.174-1.522c.341.153.734.29 1.18.41.445.12.843.183 1.192.19.766-.011 1.324-.154 1.674-.428a1.75 1.75 0 0 0 .66-1.022c.09-.406.13-.813.116-1.22h-.031c-.205.303-.528.56-.97.768-.44.209-.96.318-1.56.327-.798-.01-1.441-.172-1.93-.49a2.763 2.763 0 0 1-1.064-1.263 4.307 4.307 0 0 1-.327-1.718 4.05 4.05 0 0 1 .353-1.66 3.2 3.2 0 0 1 1.118-1.349c.508-.357 1.167-.543 1.975-.556.54-.003 1.016.08 1.433.252a2.52 2.52 0 0 1 1.066.843h.031v-.934zm-1.96 5.488c.659-.018 1.136-.227 1.43-.631.295-.404.44-.901.436-1.492.003-.604-.138-1.106-.423-1.509-.285-.403-.734-.612-1.348-.628-.477.008-.853.118-1.131.33a1.754 1.754 0 0 0-.594.814c-.118.33-.176.674-.173 1.033 0 .32.066.638.198.955.13.317.331.583.598.796.265.212.602.323 1.007.332zM252 40v-7.818h1.88v1.063h.03c.31-.445.675-.764 1.094-.959.42-.196.888-.29 1.406-.286.898.017 1.555.308 1.972.873.417.563.623 1.294.618 2.193V40h-1.983v-4.175c.008-.33-.01-.666-.05-1.008a1.73 1.73 0 0 0-.337-.868c-.184-.238-.484-.361-.9-.37-.473.013-.837.163-1.091.45-.254.287-.428.629-.522 1.027-.095.398-.139.77-.134 1.118V40H252zM261.927 37.611c.008.325.132.562.37.712.236.15.54.225.91.223.622-.02 1.092-.247 1.415-.682.162-.218.274-.46.334-.726.061-.267.09-.55.087-.848h-.873a5.192 5.192 0 0 0-.983.082c-.343.06-.636.185-.879.375s-.37.478-.38.864m-1.024-3.324l-.06-1.708c.401-.18.84-.32 1.319-.423a6.782 6.782 0 0 1 1.375-.156c1.173-.007 2.026.249 2.557.765.531.517.793 1.334.784 2.457v.98a63.045 63.045 0 0 0 .03 1.914c.016.56.046 1.13.091 1.707h-1.777a5.16 5.16 0 0 1-.067-.633l-.023-.51h-.03c-.246.425-.589.75-1.027.978-.439.226-.894.34-1.367.342-.464-.001-.9-.09-1.31-.265a2.438 2.438 0 0 1-1-.77c-.259-.338-.39-.75-.399-1.236.008-.567.133-1.027.376-1.38.241-.352.557-.62.949-.8a4.35 4.35 0 0 1 1.274-.363c.458-.06.9-.088 1.33-.083h1.114c.001-.608-.14-1.037-.427-1.286-.286-.25-.727-.37-1.318-.362a3.749 3.749 0 0 0-1.266.227c-.41.147-.786.35-1.128.605M172.932 44.325v.681h-1.15v2.498c.005.265.07.467.198.607a.629.629 0 0 0 .475.209c.123-.002.23-.019.32-.05a.901.901 0 0 0 .225-.111v.716c-.09.03-.194.056-.312.082-.117.027-.24.041-.37.043-.417.002-.743-.105-.98-.32-.234-.216-.353-.55-.358-1.005v-2.669H170v-.68h.98v-1.058l.801-.268v1.325h1.15zM175.862 46.04h2.276c-.002-.373-.097-.687-.286-.938-.188-.251-.457-.382-.809-.39-.263.005-.478.073-.645.207-.167.133-.294.3-.379.502-.086.203-.138.41-.157.62m2.802 1.77v.88a5.207 5.207 0 0 1-.539.2c-.21.067-.493.104-.849.109-.777-.01-1.353-.248-1.723-.71-.372-.462-.556-1.087-.553-1.875.008-.72.197-1.299.564-1.738.368-.439.867-.665 1.496-.677.486.004.87.124 1.155.358.284.232.488.552.608.957.122.404.18.865.177 1.381h-3.138c.004.318.072.595.205.834.133.237.309.423.527.556.218.132.457.2.717.202.278-.01.545-.066.803-.172.257-.106.441-.208.55-.306M182 49v-4.886h.927v.757h.021c.138-.259.334-.466.587-.626.251-.159.523-.24.813-.245a3.058 3.058 0 0 1 .652.066v.805a1.565 1.565 0 0 0-.547-.086 1.283 1.283 0 0 0-1.064.537c-.26.35-.393.836-.399 1.456V49H182zM186 49v-4.886h.927v.757h.022c.137-.259.333-.466.586-.626.251-.159.523-.24.814-.245a3.036 3.036 0 0 1 .651.066v.805a1.559 1.559 0 0 0-.545-.086 1.283 1.283 0 0 0-1.066.537c-.26.35-.393.836-.399 1.456V49H186zM195.098 47.033v-.421l-.551-.019a3.706 3.706 0 0 0-.63.051 1.672 1.672 0 0 0-.68.254c-.201.132-.307.335-.318.612.011.254.109.447.289.58a.981.981 0 0 0 .585.198c.429-.008.753-.128.974-.361.22-.231.331-.53.331-.894m-2.52-1.835l-.045-.748c.215-.135.453-.243.71-.324.258-.082.536-.124.835-.126.665.001 1.148.167 1.447.499.297.333.444.824.438 1.476v1.976c.001.268.005.474.011.619.008.145.017.25.026.316h-.809v-.617h-.02c-.097.157-.266.316-.504.475-.238.158-.555.243-.948.256-.515.003-.928-.117-1.24-.355-.311-.24-.47-.617-.479-1.135.01-.396.133-.71.366-.94a2 2 0 0 1 .852-.491c.332-.097.653-.145.962-.142l.46.002c.14.002.293.009.458.017.006-.412-.079-.722-.254-.932-.176-.208-.478-.312-.904-.312a2.177 2.177 0 0 0-1.361.486M205.968 44.187l-.062.73c-.294-.138-.564-.207-.81-.205a1.073 1.073 0 0 0-.709.261c-.194.17-.341.39-.442.66-.1.269-.15.56-.152.867 0 .29.045.572.136.842.093.271.239.495.437.672.199.177.457.269.777.274.13 0 .267-.023.41-.069.142-.046.274-.112.392-.202l.055.786a1.565 1.565 0 0 1-.483.161 2.658 2.658 0 0 1-.453.036c-.41-.006-.77-.121-1.079-.345a2.241 2.241 0 0 1-.722-.9A3.012 3.012 0 0 1 203 46.5c.003-.488.088-.919.26-1.294.17-.373.41-.668.718-.88.309-.214.67-.323 1.086-.326.156.001.317.02.484.055.168.035.308.08.42.132M209.963 46.5c-.001.29.053.572.162.842.109.271.277.495.504.672.228.177.52.269.875.275.354-.006.643-.098.869-.275.226-.177.393-.4.502-.672.107-.27.162-.553.161-.842a2.096 2.096 0 0 0-.183-.867 1.63 1.63 0 0 0-.523-.66 1.39 1.39 0 0 0-.826-.262 1.41 1.41 0 0 0-.832.262c-.23.17-.404.389-.526.66-.12.27-.182.559-.183.867m-.963 0c.003-.488.108-.92.316-1.293.207-.375.497-.67.87-.882.376-.214.815-.322 1.318-.325.502.003.938.111 1.311.325.373.212.662.507.87.882.207.374.312.805.315 1.293a2.58 2.58 0 0 1-.32 1.256c-.21.376-.5.675-.874.9-.372.223-.807.339-1.302.344-.497-.005-.934-.12-1.308-.345a2.381 2.381 0 0 1-.877-.9A2.568 2.568 0 0 1 209 46.5M216 49v-4.886h.807v.776h.017c.131-.28.33-.498.598-.655.267-.154.562-.233.883-.235.583.005 1.012.19 1.287.556.274.366.41.88.408 1.541V49h-.834v-2.529c.006-.569-.064-.996-.206-1.281-.144-.287-.394-.44-.752-.462-.473.01-.82.196-1.043.56-.223.363-.334.848-.332 1.452V49H216zM227 49h.845v-7H227zM232 45h.792v-2H232zM239.1 47.033v-.421l-.553-.019a3.714 3.714 0 0 0-.63.051 1.672 1.672 0 0 0-.68.254c-.201.132-.307.335-.318.612.012.254.109.447.289.58a.981.981 0 0 0 .585.198c.429-.008.753-.128.974-.361.22-.231.331-.53.332-.894m-2.52-1.835l-.046-.748c.215-.135.453-.243.71-.324.258-.082.536-.124.835-.126.665.001 1.148.167 1.446.499.298.333.445.824.44 1.476v1.976c0 .268.004.474.01.619.008.145.017.25.026.316h-.809v-.617h-.02c-.097.157-.266.316-.504.475-.238.158-.555.243-.948.256-.515.003-.928-.117-1.24-.355-.31-.24-.47-.617-.479-1.135.01-.396.133-.71.366-.94.235-.23.518-.393.85-.491a3.33 3.33 0 0 1 .964-.142l.46.002c.14.002.294.009.46.017.005-.412-.08-.722-.256-.932-.176-.208-.478-.312-.904-.312a2.172 2.172 0 0 0-1.361.486M242 49v-4.886h.807v.776h.017c.132-.28.33-.498.598-.655a1.76 1.76 0 0 1 .884-.235c.584.005 1.012.19 1.287.556.274.366.41.88.407 1.541V49h-.833v-2.529c.006-.569-.064-.996-.206-1.281-.144-.287-.394-.44-.753-.462-.472.01-.82.196-1.042.56-.224.363-.335.848-.333 1.452V49H242zM250 48h.846v-4H250zM254 49v-4.886h.72v.71h.018c.146-.283.327-.49.543-.625.218-.134.479-.2.785-.199.247-.002.477.074.691.226.216.152.38.394.497.722.1-.231.225-.418.38-.556.152-.14.312-.24.476-.301.162-.062.31-.092.438-.091.527.01.902.189 1.126.536.224.345.332.789.326 1.332V49h-.771v-2.912a3.102 3.102 0 0 0-.055-.62 1.193 1.193 0 0 0-.22-.522.581.581 0 0 0-.47-.219.854.854 0 0 0-.635.268c-.162.172-.28.395-.354.669-.074.274-.11.565-.11.874V49h-.77v-2.912a3.17 3.17 0 0 0-.055-.62 1.194 1.194 0 0 0-.222-.522c-.107-.14-.264-.213-.469-.219a.857.857 0 0 0-.635.268 1.56 1.56 0 0 0-.354.669 3.278 3.278 0 0 0-.11.874V49H254zM266.1 47.033v-.421l-.553-.019a3.696 3.696 0 0 0-.63.051c-.252.038-.48.123-.68.254-.201.132-.306.335-.318.612.012.254.109.447.289.58a.981.981 0 0 0 .585.198c.429-.008.753-.128.974-.361.22-.231.331-.53.332-.894m-2.52-1.835l-.046-.748c.216-.135.454-.243.711-.324.257-.082.535-.124.835-.126.665.001 1.147.167 1.446.499.298.333.444.824.44 1.476v1.976c0 .268.003.474.01.619.007.145.016.25.025.316h-.809v-.617h-.018c-.1.157-.268.316-.506.475-.238.158-.554.243-.948.256-.515.003-.927-.117-1.24-.355-.31-.24-.47-.617-.479-1.135.01-.396.133-.71.366-.94a2 2 0 0 1 .852-.491c.333-.097.654-.145.962-.142l.46.002c.14.002.294.009.46.017.005-.412-.08-.722-.256-.932-.176-.208-.478-.312-.904-.312a2.177 2.177 0 0 0-1.361.486" mask="url(#d)"/>
        </g>
        <g fill="#FFF">
            <text font-family="SourceSansPro-Semibold, Source Sans Pro" font-size="22" font-weight="500" opacity=".8" transform="translate(-8 118)">
                <tspan x="22.497" y="56.242">Società costituita dalla</tspan> <tspan x="13.433" y="80.242">Regione Emilia Romagna</tspan>
            </text>
            <text font-family="SourceSansPro-Bold, Source Sans Pro" font-size="38" font-weight="bold" transform="translate(-8 118)">
                <tspan x="29.926" y="22.658">APT Servizi</tspan>
            </text>
        </g>
    </g>
</svg>
